<svg xmlns="http://www.w3.org/2000/svg" width="206" height="205" viewBox="0 0 206 205" fill="none">
  <mask id="path-1-inside-1_6_1624" fill="white">
    <path fill-rule="evenodd" clip-rule="evenodd" d="M160.564 6L154 0L147.436 6H15C6.71573 6 0 12.7157 0 21V190C0 198.284 6.71573 205 15 205H191C199.284 205 206 198.284 206 190V21C206 12.7157 199.284 6 191 6H160.564Z"/>
  </mask>
  <path fill-rule="evenodd" clip-rule="evenodd" d="M160.564 6L154 0L147.436 6H15C6.71573 6 0 12.7157 0 21V190C0 198.284 6.71573 205 15 205H191C199.284 205 206 198.284 206 190V21C206 12.7157 199.284 6 191 6H160.564Z" fill="white"/>
  <path d="M154 0L154.675 -0.738083L154 -1.35486L153.325 -0.738083L154 0ZM160.564 6L159.889 6.73808L160.175 7H160.564V6ZM147.436 6V7H147.825L148.111 6.73808L147.436 6ZM153.325 0.738083L159.889 6.73808L161.238 5.26192L154.675 -0.738083L153.325 0.738083ZM148.111 6.73808L154.675 0.738083L153.325 -0.738083L146.762 5.26192L148.111 6.73808ZM15 7H147.436V5H15V7ZM1 21C1 13.268 7.26801 7 15 7V5C6.16345 5 -1 12.1634 -1 21H1ZM1 190V21H-1V190H1ZM15 204C7.26801 204 1 197.732 1 190H-1C-1 198.837 6.16344 206 15 206V204ZM191 204H15V206H191V204ZM205 190C205 197.732 198.732 204 191 204V206C199.837 206 207 198.837 207 190H205ZM205 21V190H207V21H205ZM191 7C198.732 7 205 13.268 205 21H207C207 12.1634 199.837 5 191 5V7ZM160.564 7H191V5H160.564V7Z" fill="#1D482E" mask="url(#path-1-inside-1_6_1624)"/>
</svg>